# xmcd CD database file
#
# Track frame offsets:
#	150
#	12087
#	38822
#	54563
#	78207
#	98201
#	120416
#	143272
#	168148
#	189136
#	206572
#	225609
#	237032
#	264331
#	289961
#	315541
#
# Disc length: 4469 seconds
#
# Revision: 0
# Processed by: cddbd v1.5.2PL0 Copyright (c) Steve Scherf et al.
# Submitted via: CDex 2.14
#
DISCID=be117310
DTITLE=Various Artist - Autumn Leaves
DYEAR=2014
DGENRE=Jazz
TTITLE0=Grace Kelly - You'd Be So Nice To Come Home To
TTITLE1=Sarah McKenzie - I Remember You
TTITLE2=Gregg Arthur - More and More
TTITLE3=Katie Noonan - Les Feuilles Mortes (Autumn Leaves)
TTITLE4=Phil Collins Quartet - When Flowers Still
TTITLE5=Fiona Burnett - Don't Dream It's Over
TTITLE6=Becky Fox - Si Tu M'Aimes Encore
TTITLE7=Barry Tuckwell and Tony Gould -  Autumn in New York
TTITLE8=Paul Grabowsky - Always
TTITLE9=Catherine Hunter - Only Trust Your Heart
TTITLE10=Tim Stevens Trio - This Quiet Life
TTITLE11=Rhonda Burchmore - Blue Moon
TTITLE12=The Mell-O-Tones - It Might As Well Be Spring
TTITLE13=The Idea Of North - Neat Surprise
TTITLE14=Alison Wedding - The Secret
TTITLE15=Michelle Nicolle - Days of Wine and Roses
EXTD=YEAR: 2014
EXTT0=
EXTT1=
EXTT2=
EXTT3=
EXTT4=
EXTT5=
EXTT6=
EXTT7=
EXTT8=
EXTT9=
EXTT10=
EXTT11=
EXTT12=
EXTT13=
EXTT14=
EXTT15=
PLAYORDER=
